<svg width="25" height="25" viewBox="0 0 25 25" xmlns="http://www.w3.org/2000/svg"><path d="M12.4146 6.38024C13.3131 6.38024 14.0438 7.13455 14.0438 8.06206C14.0438 8.98678 13.3131 9.74108 12.4146 9.74108C11.5161 9.74108 10.7854 8.98678 10.7854 8.06206C10.7854 7.13455 11.5161 6.38024 12.4146 6.38024ZM12.4146 12.1213C14.5851 12.1213 16.3496 10.2998 16.3496 8.06206C16.3496 5.8215 14.5851 4 12.4146 4C10.2442 4 8.48237 5.8215 8.48237 8.06206C8.48237 10.2998 10.2442 12.1213 12.4146 12.1213ZM14.0059 15.4347C14.807 15.2447 15.5783 14.9178 16.2901 14.4569C16.8286 14.1077 16.991 13.3729 16.6527 12.817C16.3117 12.2582 15.6027 12.0906 15.0614 12.4426C13.4512 13.4875 11.3781 13.4875 9.76516 12.4426C9.22661 12.0906 8.51485 12.2582 8.17656 12.817C7.83827 13.3729 8.00065 14.1077 8.53921 14.4569C9.25096 14.9178 10.0223 15.2447 10.8233 15.4347L8.6231 17.7032C8.17385 18.1669 8.17385 18.9212 8.6231 19.385C8.85043 19.6169 9.14271 19.7342 9.4377 19.7342C9.73269 19.7342 10.0277 19.6169 10.255 19.385L12.4146 17.1556L14.577 19.385C15.0262 19.8515 15.7542 19.8515 16.2062 19.385C16.6554 18.9212 16.6554 18.1669 16.2062 17.7032L14.0059 15.4347Z" fill="currentColor"/></svg>