<svg xmlns="http://www.w3.org/2000/svg" xmlns:xlink="http://www.w3.org/1999/xlink"><defs>
<linearGradient id="paint0_linear_82_466" x1="19.774" y1="3.00672e-05" x2="105.785" y2="10.6444" gradientUnits="userSpaceOnUse">
<stop stop-color="#ED0233"/>
<stop offset="1" stop-color="#003EB7"/>
</linearGradient>
<linearGradient id="paint1_linear_82_466" x1="28.2373" y1="14" x2="90.1653" y2="21.664" gradientUnits="userSpaceOnUse">
<stop stop-color="#ED0233"/>
<stop offset="1" stop-color="#003EB7"/>
</linearGradient>
</defs><symbol id="arrow-left-active" viewBox="0 0 58 58"><g fill="none">
<circle cx="29" cy="29" r="28" fill="#102654" stroke="#102654"/>
<path d="M35 13L19 29L35 45" stroke="white"/>
</g></symbol><symbol id="arrow-left-disabled" viewBox="0 0 56 56"><g fill="none">
<path opacity="0.3" d="M36 12L20 28L36 44" stroke="#102654"/>
</g></symbol><symbol id="arrow-left-hover-focus" viewBox="0 0 58 58"><g fill="none">
<circle cx="29" cy="29" r="28" stroke="#102654"/>
<path d="M35 13L19 29L35 45" stroke="#102654"/>
</g></symbol><symbol id="arrow-left" viewBox="0 0 56 56"><g fill="none">
<path d="M36 12L20 28L36 44" stroke="currentColor"/>
</g></symbol><symbol id="faq-button-active" viewBox="0 0 42 42"><g fill="none">
<circle cx="21" cy="21" r="20.5" fill="#102654" stroke="#102654"/>
<path d="M30 21H21H12" stroke="white"/>
</g></symbol><symbol id="faq-button-disabled" viewBox="0 0 42 42"><g fill="none">
<g opacity="0.3">
<circle cx="21" cy="21" r="20.5" stroke="#102654"/>
<path d="M21 12V21M21 30V21M21 21H30M21 21H12" stroke="#102654"/>
</g>
</g></symbol><symbol id="faq-button-hover-focus" viewBox="0 0 42 42"><g fill="none">
<circle cx="21" cy="21" r="21" fill="#102654"/>
<path d="M21 12V21M21 30V21M21 21H30M21 21H12" stroke="white"/>
</g></symbol><symbol id="faq-button" viewBox="0 0 42 42"><g fill="none">
<circle cx="21" cy="21" r="20.5" stroke="#102654"/>
<path d="M21 12V21M21 30V21M21 21H30M21 21H12" stroke="#102654"/>
</g></symbol><symbol id="rouble" viewBox="0 0 30 42"><g fill="none">
<path fill-rule="evenodd" clip-rule="evenodd" d="M0 17H6V23H0V17Z" fill="#102654"/>
<path fill-rule="evenodd" clip-rule="evenodd" d="M3.65854 28.3214V18H9.65854V28.3214H21V34.3214H9.65854V42H3.65854V34.3214H0V28.3214H3.65854Z" fill="#102654"/>
<path fill-rule="evenodd" clip-rule="evenodd" d="M18.5 6H10V17H18.5C21.5376 17 24 14.5376 24 11.5C24 8.46243 21.5376 6 18.5 6ZM4 0V23H18.5C24.8513 23 30 17.8513 30 11.5C30 5.14873 24.8513 0 18.5 0H4Z" fill="#102654"/>
</g></symbol><symbol id="socials-ok-custom-frame" viewBox="0 0 25 25">
<path d="M12.4146 6.38024C13.3131 6.38024 14.0438 7.13455 14.0438 8.06206C14.0438 8.98678 13.3131 9.74108 12.4146 9.74108C11.5161 9.74108 10.7854 8.98678 10.7854 8.06206C10.7854 7.13455 11.5161 6.38024 12.4146 6.38024ZM12.4146 12.1213C14.5851 12.1213 16.3496 10.2998 16.3496 8.06206C16.3496 5.8215 14.5851 4 12.4146 4C10.2442 4 8.48237 5.8215 8.48237 8.06206C8.48237 10.2998 10.2442 12.1213 12.4146 12.1213ZM14.0059 15.4347C14.807 15.2447 15.5783 14.9178 16.2901 14.4569C16.8286 14.1077 16.991 13.3729 16.6527 12.817C16.3117 12.2582 15.6027 12.0906 15.0614 12.4426C13.4512 13.4875 11.3781 13.4875 9.76516 12.4426C9.22661 12.0906 8.51485 12.2582 8.17656 12.817C7.83827 13.3729 8.00065 14.1077 8.53921 14.4569C9.25096 14.9178 10.0223 15.2447 10.8233 15.4347L8.6231 17.7032C8.17385 18.1669 8.17385 18.9212 8.6231 19.385C8.85043 19.6169 9.14271 19.7342 9.4377 19.7342C9.73269 19.7342 10.0277 19.6169 10.255 19.385L12.4146 17.1556L14.577 19.385C15.0262 19.8515 15.7542 19.8515 16.2062 19.385C16.6554 18.9212 16.6554 18.1669 16.2062 17.7032L14.0059 15.4347Z" fill="currentColor"/>
</symbol><symbol id="socials-reddit-custom-frame" viewBox="0 0 25 25">
<path d="M13.2953 5C12.85 5 12.432 5.22593 12.164 5.55175C11.8959 5.87757 11.7481 6.27473 11.6405 6.6933C11.4695 7.36634 11.4167 8.11311 11.4041 8.78615C10.1524 8.86939 9.0189 9.24039 8.07749 9.81355C7.69544 9.49248 7.23529 9.31412 6.79414 9.31887C6.29177 9.32363 5.81473 9.54005 5.46012 9.98478C4.78256 10.8338 4.86066 12.2227 5.64587 13.0479C5.59732 13.3024 5.56144 13.564 5.56144 13.828C5.56144 16.6248 8.41944 18.8889 11.9444 18.8889C15.4695 18.8889 18.3275 16.6224 18.3275 13.828C18.3275 13.564 18.2916 13.3024 18.243 13.0479C19.0282 12.2227 19.1063 10.8338 18.4288 9.98478C18.0742 9.54005 17.5971 9.32363 17.0948 9.31887C16.6536 9.31412 16.1934 9.49248 15.8114 9.81355C14.8742 9.24277 13.7471 8.87177 12.5017 8.78615C12.5186 8.16543 12.5629 7.52093 12.6874 7.03577C12.7655 6.73135 12.8584 6.51018 12.9576 6.38889C13.0568 6.2676 13.1286 6.21766 13.2953 6.21766C13.6563 6.21766 13.7027 6.33419 13.9201 6.6172C14.0299 6.75989 14.1565 6.93826 14.3592 7.11187C14.5618 7.28548 14.8615 7.43531 15.1866 7.43531V6.21766C15.0958 6.21766 15.079 6.21528 15.0177 6.16058C14.9565 6.10588 14.8721 5.97983 14.7476 5.81811C14.4985 5.49229 14.0151 5 13.2953 5ZM16.8077 5.11416C15.9676 5.11416 15.2879 5.87995 15.2879 6.82648C15.2879 7.77302 15.9676 8.53881 16.8077 8.53881C17.6478 8.53881 18.3275 7.77302 18.3275 6.82648C18.3275 5.87995 17.6478 5.11416 16.8077 5.11416ZM16.8077 5.72298C17.348 5.72298 17.7871 6.21766 17.7871 6.82648C17.7871 7.43531 17.348 7.92998 16.8077 7.92998C16.2673 7.92998 15.8283 7.43531 15.8283 6.82648C15.8283 6.21766 16.2673 5.72298 16.8077 5.72298ZM11.9444 9.73744C14.9354 9.73744 17.4663 11.6139 17.4663 13.828C17.4663 16.0445 14.9354 17.9186 11.9444 17.9186C8.95347 17.9186 6.42264 16.0445 6.42264 13.828C6.42264 11.6139 8.95347 9.73744 11.9444 9.73744ZM6.81102 10.2892C6.96089 10.2916 7.11709 10.3296 7.26695 10.4033C6.72448 10.8671 6.29388 11.3998 6.00048 12.0015C5.79785 11.5306 5.85273 10.9432 6.1018 10.6317C6.28333 10.4033 6.53451 10.2868 6.81102 10.2892ZM17.0779 10.2892C17.3544 10.2868 17.6056 10.4033 17.7871 10.6317C18.0362 10.9432 18.091 11.5306 17.8884 12.0015C17.595 11.3998 17.1644 10.8671 16.6219 10.4033C16.7718 10.3296 16.928 10.2916 17.0779 10.2892ZM9.783 11.8113C9.24264 11.8113 8.8036 12.3059 8.8036 12.9148C8.8036 13.5236 9.24264 14.0183 9.783 14.0183C10.3234 14.0183 10.7624 13.5236 10.7624 12.9148C10.7624 12.3059 10.3234 11.8113 9.783 11.8113ZM14.1059 11.8113C13.5655 11.8113 13.1265 12.3059 13.1265 12.9148C13.1265 13.5236 13.5655 14.0183 14.1059 14.0183C14.6462 14.0183 15.0853 13.5236 15.0853 12.9148C15.0853 12.3059 14.6462 11.8113 14.1059 11.8113ZM9.25953 15.5594C9.60359 16.3608 10.6674 17.1385 11.9444 17.1385C13.2215 17.1385 14.3022 16.3608 14.6462 15.5594C14.0215 16.0136 13.0357 16.3204 11.9444 16.3204C10.8532 16.3204 9.88432 16.0136 9.25953 15.5594Z" fill="currentColor"/>
</symbol><symbol id="socials-vk-custom-frame" viewBox="0 0 25 25">
<path d="M13.4727 14.3301C13.9154 14.187 14.4822 15.2747 15.0855 15.691C15.5384 16.0063 15.8852 15.9383 15.8852 15.9383L17.4934 15.9151C17.4934 15.9151 18.3338 15.8632 17.9365 15.1955C17.9036 15.14 17.7036 14.7005 16.7395 13.7962C15.7315 12.8502 15.8681 13.0034 17.0817 11.3679C17.8212 10.371 18.1171 9.76208 18.0245 9.50277C17.9356 9.25318 17.3924 9.31801 17.3924 9.31801L15.5805 9.33051C15.4041 9.33098 15.2545 9.38562 15.1865 9.56898C15.1851 9.57084 14.8989 10.3404 14.5174 10.9947C13.7112 12.3788 13.3894 12.4524 13.256 12.3658C12.9499 12.1653 13.0273 11.5615 13.0273 11.1322C13.0273 9.79079 13.2273 9.23142 12.6355 9.08695C12.4378 9.03879 12.2933 9.0073 11.7891 9.00267C11.1445 8.99295 10.5972 9.00267 10.2869 9.15502C10.0809 9.25828 9.92296 9.48471 10.0188 9.49767C10.1392 9.51388 10.4092 9.57176 10.5536 9.76902C10.7393 10.0246 10.7338 10.5974 10.7338 10.5974C10.7338 10.5974 10.8398 12.1769 10.4837 12.3728C10.2392 12.507 9.9049 12.2329 9.18578 10.9762C8.81858 10.3335 8.54121 9.62316 8.54121 9.62316C8.54121 9.62316 8.4875 9.49119 8.39026 9.41895C8.27449 9.33329 8.11243 9.30597 8.11243 9.30597L6.39265 9.31708C6.39265 9.31708 6.13427 9.32449 6.03935 9.4384C5.95507 9.53935 6.0324 9.74772 6.0324 9.74772C6.0324 9.74772 7.37942 12.934 8.90471 14.5389C10.3031 16.0123 11.8923 15.9146 11.8923 15.9146H12.6124C12.6124 15.9146 12.8295 15.8896 12.9407 15.7702C13.0444 15.659 13.0398 15.4502 13.0398 15.4502C13.0398 15.4502 13.0254 14.4736 13.4727 14.3301Z" fill="currentColor"/>
</symbol><symbol id="video-player-button-active" viewBox="0 0 100 100"><g fill="none">
<circle cx="50" cy="50" r="49" stroke="#102654" stroke-width="2"/>
<circle cx="50" cy="50" r="29" fill="white"/>
<path d="M59 49.5L46.25 56.8612L46.25 42.1388L59 49.5Z" fill="#102654"/>
</g></symbol><symbol id="video-player-button-custom-frame" viewBox="0 0 41 41">
<path d="M28 21.5L15.25 28.8612L15.25 14.1388L28 21.5Z" fill="currentColor"/>
</symbol><symbol id="video-player-button-disabled" viewBox="0 0 100 100"><g fill="none">
<g opacity="0.4">
<circle cx="50" cy="50" r="49" stroke="#102654" stroke-width="2"/>
<circle cx="50" cy="50" r="36" fill="white"/>
<path d="M59 49.5L46.25 56.8612L46.25 42.1388L59 49.5Z" fill="#102654"/>
</g>
</g></symbol><symbol id="video-player-button-hover-focus" viewBox="0 0 100 100"><g fill="none">
<circle cx="50" cy="50" r="49" stroke="#102654" stroke-width="2"/>
<circle cx="50" cy="50" r="36" fill="white"/>
<path d="M59 49.5L46.25 56.8612L46.25 42.1388L59 49.5Z" fill="#102654"/>
</g></symbol><symbol id="video-player-button-play" viewBox="0 0 13 15"><g fill="none">
<path d="M13 7.5L0.249999 14.8612L0.25 0.138783L13 7.5Z" fill="#102654"/>
</g></symbol><symbol id="video-player-button" viewBox="0 0 100 100"><g fill="none">
<circle opacity="0.2" cx="50" cy="50" r="49" stroke="url(#paint0_linear_82_466)" stroke-width="2"/>
<circle cx="50" cy="50" r="36" fill="url(#paint1_linear_82_466)"/>
<path d="M59 49.5L46.25 56.8612L46.25 42.1388L59 49.5Z" fill="white"/>

</g></symbol></svg>