<svg width="25" height="25" viewBox="0 0 25 25" xmlns="http://www.w3.org/2000/svg">
<path d="M13.2953 5C12.85 5 12.432 5.22593 12.164 5.55175C11.8959 5.87757 11.7481 6.27473 11.6405 6.6933C11.4695 7.36634 11.4167 8.11311 11.4041 8.78615C10.1524 8.86939 9.0189 9.24039 8.07749 9.81355C7.69544 9.49248 7.23529 9.31412 6.79414 9.31887C6.29177 9.32363 5.81473 9.54005 5.46012 9.98478C4.78256 10.8338 4.86066 12.2227 5.64587 13.0479C5.59732 13.3024 5.56144 13.564 5.56144 13.828C5.56144 16.6248 8.41944 18.8889 11.9444 18.8889C15.4695 18.8889 18.3275 16.6224 18.3275 13.828C18.3275 13.564 18.2916 13.3024 18.243 13.0479C19.0282 12.2227 19.1063 10.8338 18.4288 9.98478C18.0742 9.54005 17.5971 9.32363 17.0948 9.31887C16.6536 9.31412 16.1934 9.49248 15.8114 9.81355C14.8742 9.24277 13.7471 8.87177 12.5017 8.78615C12.5186 8.16543 12.5629 7.52093 12.6874 7.03577C12.7655 6.73135 12.8584 6.51018 12.9576 6.38889C13.0568 6.2676 13.1286 6.21766 13.2953 6.21766C13.6563 6.21766 13.7027 6.33419 13.9201 6.6172C14.0299 6.75989 14.1565 6.93826 14.3592 7.11187C14.5618 7.28548 14.8615 7.43531 15.1866 7.43531V6.21766C15.0958 6.21766 15.079 6.21528 15.0177 6.16058C14.9565 6.10588 14.8721 5.97983 14.7476 5.81811C14.4985 5.49229 14.0151 5 13.2953 5ZM16.8077 5.11416C15.9676 5.11416 15.2879 5.87995 15.2879 6.82648C15.2879 7.77302 15.9676 8.53881 16.8077 8.53881C17.6478 8.53881 18.3275 7.77302 18.3275 6.82648C18.3275 5.87995 17.6478 5.11416 16.8077 5.11416ZM16.8077 5.72298C17.348 5.72298 17.7871 6.21766 17.7871 6.82648C17.7871 7.43531 17.348 7.92998 16.8077 7.92998C16.2673 7.92998 15.8283 7.43531 15.8283 6.82648C15.8283 6.21766 16.2673 5.72298 16.8077 5.72298ZM11.9444 9.73744C14.9354 9.73744 17.4663 11.6139 17.4663 13.828C17.4663 16.0445 14.9354 17.9186 11.9444 17.9186C8.95347 17.9186 6.42264 16.0445 6.42264 13.828C6.42264 11.6139 8.95347 9.73744 11.9444 9.73744ZM6.81102 10.2892C6.96089 10.2916 7.11709 10.3296 7.26695 10.4033C6.72448 10.8671 6.29388 11.3998 6.00048 12.0015C5.79785 11.5306 5.85273 10.9432 6.1018 10.6317C6.28333 10.4033 6.53451 10.2868 6.81102 10.2892ZM17.0779 10.2892C17.3544 10.2868 17.6056 10.4033 17.7871 10.6317C18.0362 10.9432 18.091 11.5306 17.8884 12.0015C17.595 11.3998 17.1644 10.8671 16.6219 10.4033C16.7718 10.3296 16.928 10.2916 17.0779 10.2892ZM9.783 11.8113C9.24264 11.8113 8.8036 12.3059 8.8036 12.9148C8.8036 13.5236 9.24264 14.0183 9.783 14.0183C10.3234 14.0183 10.7624 13.5236 10.7624 12.9148C10.7624 12.3059 10.3234 11.8113 9.783 11.8113ZM14.1059 11.8113C13.5655 11.8113 13.1265 12.3059 13.1265 12.9148C13.1265 13.5236 13.5655 14.0183 14.1059 14.0183C14.6462 14.0183 15.0853 13.5236 15.0853 12.9148C15.0853 12.3059 14.6462 11.8113 14.1059 11.8113ZM9.25953 15.5594C9.60359 16.3608 10.6674 17.1385 11.9444 17.1385C13.2215 17.1385 14.3022 16.3608 14.6462 15.5594C14.0215 16.0136 13.0357 16.3204 11.9444 16.3204C10.8532 16.3204 9.88432 16.0136 9.25953 15.5594Z" fill="currentColor"/>
</svg>
