<svg width="25" height="25" viewBox="0 0 25 25" fill="none" xmlns="http://www.w3.org/2000/svg">
<path d="M13.4727 14.3301C13.9154 14.187 14.4822 15.2747 15.0855 15.691C15.5384 16.0063 15.8852 15.9383 15.8852 15.9383L17.4934 15.9151C17.4934 15.9151 18.3338 15.8632 17.9365 15.1955C17.9036 15.14 17.7036 14.7005 16.7395 13.7962C15.7315 12.8502 15.8681 13.0034 17.0817 11.3679C17.8212 10.371 18.1171 9.76208 18.0245 9.50277C17.9356 9.25318 17.3924 9.31801 17.3924 9.31801L15.5805 9.33051C15.4041 9.33098 15.2545 9.38562 15.1865 9.56898C15.1851 9.57084 14.8989 10.3404 14.5174 10.9947C13.7112 12.3788 13.3894 12.4524 13.256 12.3658C12.9499 12.1653 13.0273 11.5615 13.0273 11.1322C13.0273 9.79079 13.2273 9.23142 12.6355 9.08695C12.4378 9.03879 12.2933 9.0073 11.7891 9.00267C11.1445 8.99295 10.5972 9.00267 10.2869 9.15502C10.0809 9.25828 9.92296 9.48471 10.0188 9.49767C10.1392 9.51388 10.4092 9.57176 10.5536 9.76902C10.7393 10.0246 10.7338 10.5974 10.7338 10.5974C10.7338 10.5974 10.8398 12.1769 10.4837 12.3728C10.2392 12.507 9.9049 12.2329 9.18578 10.9762C8.81858 10.3335 8.54121 9.62316 8.54121 9.62316C8.54121 9.62316 8.4875 9.49119 8.39026 9.41895C8.27449 9.33329 8.11243 9.30597 8.11243 9.30597L6.39265 9.31708C6.39265 9.31708 6.13427 9.32449 6.03935 9.4384C5.95507 9.53935 6.0324 9.74772 6.0324 9.74772C6.0324 9.74772 7.37942 12.934 8.90471 14.5389C10.3031 16.0123 11.8923 15.9146 11.8923 15.9146H12.6124C12.6124 15.9146 12.8295 15.8896 12.9407 15.7702C13.0444 15.659 13.0398 15.4502 13.0398 15.4502C13.0398 15.4502 13.0254 14.4736 13.4727 14.3301Z" fill="#030A1A"/>
</svg>
